#Comment line ignore any data following # character 
#Hierarchical Translation and Rotation (.htr) file 
[Header]	
#Header keywords are followed by a single value 
FileType HTR		#Single word string
DataType HTRS		#Translation followed by rotation and scale data
FileVersion 1		#integer
NumSegments 84		#integer
NumFrames 2		#integer
DataFrameRate 30		#integer, data frame rate in this file
EulerRotationOrder ZYX
CalibrationUnits mm
RotationUnits Degrees
GlobalAxisofGravity Y
BoneLengthAxis Y
ScaleFactor 1.00
[SegmentNames&Hierarchy]
#CHILD	PARENT
MASTER GLOBAL
root MASTER
chest root
L_mid_tent01 root
R_mid_tent01 root
spine01 root
Bip01_Neck chest
L_humerus chest
R_humerus chest
weapon_bone chest
Bip01_Head Bip01_Neck
eye_left_bone Bip01_Head
eye_right_bone Bip01_Head
L_forearm L_humerus
L_front_hand L_forearm
L_weapon_bone L_forearm
L_front_hand01_01 L_front_hand
L_front_hand02_01 L_front_hand
L_front_hand03_01 L_front_hand
L_front_hand01_02 L_front_hand01_01
L_front_hand02_02 L_front_hand02_01
L_front_hand03_02 L_front_hand03_01
R_forearm R_humerus
R_front_hand R_forearm
R_weapon_bone R_forearm
R_front_hand01_01 R_front_hand
R_front_hand02_01 R_front_hand
R_front_hand03_01 R_front_hand
R_front_hand01_02 R_front_hand01_01
R_front_hand02_02 R_front_hand02_01
R_front_hand03_02 R_front_hand03_01
null_rope01_connect L_mid_tent01
Rope1_Seg01 null_rope01_connect
Rope1_Seg02 Rope1_Seg01
Rope1_Seg03 Rope1_Seg02
Rope1_Seg04 Rope1_Seg03
Rope1_Seg05 Rope1_Seg04
Rope1_Seg06 Rope1_Seg05
Rope1_Seg07 Rope1_Seg06
Rope1_Seg09 Rope1_Seg07
L_mid_hand01 Rope1_Seg09
L_mid_hand02 Rope1_Seg09
L_mid_hand03 Rope1_Seg09
null_rope02_connect R_mid_tent01
Rope2_Seg01 null_rope02_connect
Rope2_Seg02 Rope2_Seg01
Rope2_Seg03 Rope2_Seg02
Rope2_Seg04 Rope2_Seg03
Rope2_Seg05 Rope2_Seg04
Rope2_Seg06 Rope2_Seg05
Rope2_Seg07 Rope2_Seg06
Rope2_Seg09 Rope2_Seg07
R_mid_hand01 Rope2_Seg09
R_mid_hand02 Rope2_Seg09
R_mid_hand03 Rope2_Seg09
spine02 spine01
spine03 spine02
pelvis spine03
null_rope03_connect pelvis
null_rope04_connect pelvis
Rope3_Seg01 null_rope03_connect
Rope3_Seg02 Rope3_Seg01
Rope3_Seg03 Rope3_Seg02
Rope3_Seg04 Rope3_Seg03
Rope3_Seg05 Rope3_Seg04
Rope3_Seg06 Rope3_Seg05
Rope3_Seg07 Rope3_Seg06
Rope3_Seg08 Rope3_Seg07
Rope3_Seg09 Rope3_Seg08
R_rear_hand01 Rope3_Seg09
R_rear_hand02 Rope3_Seg09
R_rear_hand03 Rope3_Seg09
Rope4_Seg01 null_rope04_connect
Rope4_Seg02 Rope4_Seg01
Rope4_Seg03 Rope4_Seg02
Rope4_Seg04 Rope4_Seg03
Rope4_Seg05 Rope4_Seg04
Rope4_Seg06 Rope4_Seg05
Rope4_Seg07 Rope4_Seg06
Rope4_Seg08 Rope4_Seg07
Rope4_Seg09 Rope4_Seg08
L_rear_hand01 Rope4_Seg09
L_rear_hand02 Rope4_Seg09
L_rear_hand03 Rope4_Seg09
[BasePosition]
#SegmentName Tx, Ty, Tz, Rx, Ry, Rz, BoneLength
MASTER 0.000000 0.000000 0.000000 -90.000000 0.000000 0.000000 10.000000 
root 0.000000 0.000000 0.000000 0.000000 0.000000 0.000000 10.000000 
chest 0.000000 0.000000 0.000000 0.000000 0.000000 0.000000 10.000000 
L_mid_tent01 0.000000 0.000000 0.000000 0.000000 0.000000 0.000000 10.000000 
R_mid_tent01 0.000000 0.000000 0.000000 0.000000 0.000000 0.000000 10.000000 
spine01 0.000000 0.000000 0.000000 0.000000 0.000000 0.000000 10.000000 
Bip01_Neck 0.000000 0.000000 0.000000 0.000000 0.000000 0.000000 10.000000 
L_humerus 0.000000 0.000000 0.000000 0.000000 0.000000 0.000000 10.000000 
R_humerus 0.000000 0.000000 0.000000 0.000000 0.000000 0.000000 10.000000 
weapon_bone 0.000000 0.000000 0.000000 0.000000 0.000000 0.000000 10.000000 
Bip01_Head 0.000000 0.000000 0.000000 0.000000 0.000000 0.000000 10.000000 
eye_left_bone 0.000000 0.000000 0.000000 0.000000 0.000000 0.000000 10.000000 
eye_right_bone 0.000000 0.000000 0.000000 0.000000 0.000000 0.000000 10.000000 
L_forearm 0.000000 0.000000 0.000000 0.000000 0.000000 0.000000 10.000000 
L_front_hand 0.000000 0.000000 0.000000 0.000000 0.000000 0.000000 10.000000 
L_weapon_bone 0.000000 0.000000 0.000000 0.000000 0.000000 0.000000 10.000000 
L_front_hand01_01 0.000000 0.000000 0.000000 0.000000 0.000000 0.000000 10.000000 
L_front_hand02_01 0.000000 0.000000 0.000000 0.000000 0.000000 0.000000 10.000000 
L_front_hand03_01 0.000000 0.000000 0.000000 0.000000 0.000000 0.000000 10.000000 
L_front_hand01_02 0.000000 0.000000 0.000000 0.000000 0.000000 0.000000 10.000000 
L_front_hand02_02 0.000000 0.000000 0.000000 0.000000 0.000000 0.000000 10.000000 
L_front_hand03_02 0.000000 0.000000 0.000000 0.000000 0.000000 0.000000 10.000000 
R_forearm 0.000000 0.000000 0.000000 0.000000 0.000000 0.000000 10.000000 
R_front_hand 0.000000 0.000000 0.000000 0.000000 0.000000 0.000000 10.000000 
R_weapon_bone 0.000000 0.000000 0.000000 0.000000 0.000000 0.000000 10.000000 
R_front_hand01_01 0.000000 0.000000 0.000000 0.000000 0.000000 0.000000 10.000000 
R_front_hand02_01 0.000000 0.000000 0.000000 0.000000 0.000000 0.000000 10.000000 
R_front_hand03_01 0.000000 0.000000 0.000000 0.000000 0.000000 0.000000 10.000000 
R_front_hand01_02 0.000000 0.000000 0.000000 0.000000 0.000000 0.000000 10.000000 
R_front_hand02_02 0.000000 0.000000 0.000000 0.000000 0.000000 0.000000 10.000000 
R_front_hand03_02 0.000000 0.000000 0.000000 0.000000 0.000000 0.000000 10.000000 
null_rope01_connect 0.000000 0.000000 0.000000 0.000000 0.000000 0.000000 10.000000 
Rope1_Seg01 0.000000 0.000000 0.000000 0.000000 0.000000 0.000000 10.000000 
Rope1_Seg02 0.000000 0.000000 0.000000 0.000000 0.000000 0.000000 10.000000 
Rope1_Seg03 0.000000 0.000000 0.000000 0.000000 0.000000 0.000000 10.000000 
Rope1_Seg04 0.000000 0.000000 0.000000 0.000000 0.000000 0.000000 10.000000 
Rope1_Seg05 0.000000 0.000000 0.000000 0.000000 0.000000 0.000000 10.000000 
Rope1_Seg06 0.000000 0.000000 0.000000 0.000000 0.000000 0.000000 10.000000 
Rope1_Seg07 0.000000 0.000000 0.000000 0.000000 0.000000 0.000000 10.000000 
Rope1_Seg09 0.000000 0.000000 0.000000 0.000000 0.000000 0.000000 10.000000 
L_mid_hand01 0.000000 0.000000 0.000000 0.000000 0.000000 0.000000 10.000000 
L_mid_hand02 0.000000 0.000000 0.000000 0.000000 0.000000 0.000000 10.000000 
L_mid_hand03 0.000000 0.000000 0.000000 0.000000 0.000000 0.000000 10.000000 
null_rope02_connect 0.000000 0.000000 0.000000 0.000000 0.000000 0.000000 10.000000 
Rope2_Seg01 0.000000 0.000000 0.000000 0.000000 0.000000 0.000000 10.000000 
Rope2_Seg02 0.000000 0.000000 0.000000 0.000000 0.000000 0.000000 10.000000 
Rope2_Seg03 0.000000 0.000000 0.000000 0.000000 0.000000 0.000000 10.000000 
Rope2_Seg04 0.000000 0.000000 0.000000 0.000000 0.000000 0.000000 10.000000 
Rope2_Seg05 0.000000 0.000000 0.000000 0.000000 0.000000 0.000000 10.000000 
Rope2_Seg06 0.000000 0.000000 0.000000 0.000000 0.000000 0.000000 10.000000 
Rope2_Seg07 0.000000 0.000000 0.000000 0.000000 0.000000 0.000000 10.000000 
Rope2_Seg09 0.000000 0.000000 0.000000 0.000000 0.000000 0.000000 10.000000 
R_mid_hand01 0.000000 0.000000 0.000000 0.000000 0.000000 0.000000 10.000000 
R_mid_hand02 0.000000 0.000000 0.000000 0.000000 0.000000 0.000000 10.000000 
R_mid_hand03 0.000000 0.000000 0.000000 0.000000 0.000000 0.000000 10.000000 
spine02 0.000000 0.000000 0.000000 0.000000 0.000000 0.000000 10.000000 
spine03 0.000000 0.000000 0.000000 0.000000 0.000000 0.000000 10.000000 
pelvis 0.000000 0.000000 0.000000 0.000000 0.000000 0.000000 10.000000 
null_rope03_connect 0.000000 0.000000 0.000000 0.000000 0.000000 0.000000 10.000000 
null_rope04_connect 0.000000 0.000000 0.000000 0.000000 0.000000 0.000000 10.000000 
Rope3_Seg01 0.000000 0.000000 0.000000 0.000000 0.000000 0.000000 10.000000 
Rope3_Seg02 0.000000 0.000000 0.000000 0.000000 0.000000 0.000000 10.000000 
Rope3_Seg03 0.000000 0.000000 0.000000 0.000000 0.000000 0.000000 10.000000 
Rope3_Seg04 0.000000 0.000000 0.000000 0.000000 0.000000 0.000000 10.000000 
Rope3_Seg05 0.000000 0.000000 0.000000 0.000000 0.000000 0.000000 10.000000 
Rope3_Seg06 0.000000 0.000000 0.000000 0.000000 0.000000 0.000000 10.000000 
Rope3_Seg07 0.000000 0.000000 0.000000 0.000000 0.000000 0.000000 10.000000 
Rope3_Seg08 0.000000 0.000000 0.000000 0.000000 0.000000 0.000000 10.000000 
Rope3_Seg09 0.000000 0.000000 0.000000 0.000000 0.000000 0.000000 10.000000 
R_rear_hand01 0.000000 0.000000 0.000000 0.000000 0.000000 0.000000 10.000000 
R_rear_hand02 0.000000 0.000000 0.000000 0.000000 0.000000 0.000000 10.000000 
R_rear_hand03 0.000000 0.000000 0.000000 0.000000 0.000000 0.000000 10.000000 
Rope4_Seg01 0.000000 0.000000 0.000000 0.000000 0.000000 0.000000 10.000000 
Rope4_Seg02 0.000000 0.000000 0.000000 0.000000 0.000000 0.000000 10.000000 
Rope4_Seg03 0.000000 0.000000 0.000000 0.000000 0.000000 0.000000 10.000000 
Rope4_Seg04 0.000000 0.000000 0.000000 0.000000 0.000000 0.000000 10.000000 
Rope4_Seg05 0.000000 0.000000 0.000000 0.000000 0.000000 0.000000 10.000000 
Rope4_Seg06 0.000000 0.000000 0.000000 0.000000 0.000000 0.000000 10.000000 
Rope4_Seg07 0.000000 0.000000 0.000000 0.000000 0.000000 0.000000 10.000000 
Rope4_Seg08 0.000000 0.000000 0.000000 0.000000 0.000000 0.000000 10.000000 
Rope4_Seg09 0.000000 0.000000 0.000000 0.000000 0.000000 0.000000 10.000000 
L_rear_hand01 0.000000 0.000000 0.000000 0.000000 0.000000 0.000000 10.000000 
L_rear_hand02 0.000000 0.000000 0.000000 0.000000 0.000000 0.000000 10.000000 
L_rear_hand03 0.000000 0.000000 0.000000 0.000000 0.000000 0.000000 10.000000 
#Beginning of Data. Separated by tabs
#Fr	Tx	Ty	Tz	Rx	Ry	Rz	SF
[MASTER]
38 0.000003 -0.000003 -4839.778320 0.001660 0.001660 0.001660 4839.778320
39 0.000003 -0.000002 -4812.546875 0.001660 0.001660 0.001660 4812.546875
[root]
38 -16.502304 9.323349 1448.339844 -91.728889 -11.584497 -89.471619 1448.463867
39 -16.502304 9.343742 1448.329956 -91.728889 -11.584497 -89.471619 1448.453979
[chest]
38 -84.512650 -34.090519 0.000000 -2.185654 0.145914 166.913086 91.129311
39 -84.512650 -34.090519 0.000000 -2.178528 0.095575 167.367065 91.129311
[L_mid_tent01]
38 27.299200 22.178925 -249.918686 -21.425812 9.747869 8.334363 252.381668
39 27.299198 22.178940 -249.918701 -21.396994 10.628870 9.693555 252.381683
[R_mid_tent01]
38 23.228794 24.509907 226.238495 -163.677460 -15.402277 20.043673 228.744751
39 23.228794 24.509907 226.238495 -163.783310 -16.477154 21.066162 228.744751
[spine01]
38 -0.361383 -0.195265 0.000000 0.001954 0.001301 22.666895 0.410763
39 -0.361383 -0.195265 0.000000 0.001951 0.001305 22.460127 0.410763
[Bip01_Neck]
38 165.484543 71.581718 0.000119 176.643677 -1.657967 43.431911 180.302734
39 165.484543 71.581718 0.000119 176.643677 -1.657967 43.431911 180.302734
[L_humerus]
38 -13.983130 -135.272980 -120.471481 -6.753540 64.932327 83.135986 181.680161
39 -13.983130 -135.272980 -120.471481 -6.357166 66.322075 83.591644 181.680161
[R_humerus]
38 -13.983309 -135.273102 125.287651 26.038288 -65.775208 69.667587 184.909012
39 -13.983309 -135.273102 125.287651 26.617582 -67.227806 69.068581 184.909012
[weapon_bone]
38 235.964890 -300.705902 0.000000 0.000000 -89.951546 -128.212341 382.234833
39 235.964890 -300.705902 0.000000 0.000000 -89.951546 -128.212341 382.234833
[Bip01_Head]
38 213.444199 185.715332 11.776931 4.962490 2.797846 -43.898743 283.173615
39 213.444199 185.715332 11.776928 4.962490 2.797846 -43.898743 283.173615
[eye_left_bone]
38 -24.626970 125.451866 -64.772606 0.000000 -90.000000 -99.840431 143.318359
39 -24.626970 125.451866 -64.772606 0.000000 -90.000000 -99.840431 143.318359
[eye_right_bone]
38 -24.626970 125.451866 64.327362 0.000000 -89.965736 80.156380 143.117676
39 -24.626970 125.451866 64.327362 0.000000 -89.965736 80.156380 143.117676
[L_forearm]
38 322.776093 0.000000 -0.000119 0.000416 -0.002310 -110.416672 322.776093
39 322.776093 0.000000 -0.000119 0.000409 -0.002311 -110.079079 322.776093
[L_front_hand]
38 241.149185 -0.042021 -3.300071 -178.667953 -1.835447 -27.422350 241.171753
39 241.149185 -0.042021 -3.300071 -178.667953 -1.835447 -27.422350 241.171753
[L_weapon_bone]
38 156.183838 0.000000 0.000000 0.000014 0.000007 0.000001 156.183838
39 156.183838 0.000000 0.000000 0.000014 0.000007 0.000001 156.183838
[L_front_hand01_01]
38 86.095154 20.947098 -0.655860 -0.366594 -0.477154 75.385574 88.609184
39 86.095154 20.947098 -0.655860 -0.366594 -0.477154 75.385574 88.609184
[L_front_hand02_01]
38 86.935165 -11.437475 24.513514 154.399796 -59.883835 -61.369587 91.046425
39 86.935165 -11.437475 24.513514 154.399796 -59.883835 -61.369587 91.046425
[L_front_hand03_01]
38 86.637497 -14.123976 -20.424902 -153.913849 58.118122 -62.702866 90.126129
39 86.637497 -14.123976 -20.424902 -153.913849 58.118122 -62.702850 90.126129
[L_front_hand01_02]
38 71.020905 -0.000179 0.000030 0.000334 -0.002323 -106.379684 71.020905
39 71.020905 -0.000179 0.000030 0.000334 -0.002323 -106.379684 71.020905
[L_front_hand02_02]
38 71.020927 -0.000119 0.000060 0.000334 -0.002323 -106.379684 71.020927
39 71.020927 -0.000119 0.000060 0.000334 -0.002323 -106.379684 71.020927
[L_front_hand03_02]
38 71.020905 -0.000060 0.000060 0.000334 -0.002323 -106.379684 71.020905
39 71.020905 -0.000060 0.000060 0.000334 -0.002323 -106.379684 71.020905
[R_forearm]
38 322.776428 -0.000060 0.000030 0.201523 0.066928 -109.067894 322.776428
39 322.776428 -0.000060 0.000030 0.201721 0.066329 -108.727493 322.776428
[R_front_hand]
38 238.847015 -0.006795 2.210259 -2.635298 -10.645461 -26.312506 238.857239
39 238.847015 -0.006795 2.210259 -2.635298 -10.645461 -26.312506 238.857239
[R_weapon_bone]
38 155.664093 0.002503 -0.000030 0.003487 0.001180 -90.988930 155.664078
39 155.664093 0.002503 -0.000030 0.003487 0.001180 -90.988930 155.664078
[R_front_hand01_01]
38 87.624611 14.231146 22.918642 -154.633499 -59.950634 61.746063 91.683487
39 87.624611 14.231146 22.918642 -154.633499 -59.950619 61.746044 91.683487
[R_front_hand02_01]
38 89.356956 14.367283 -19.491137 154.602661 58.302849 63.744389 92.579636
39 89.356956 14.367283 -19.491137 154.602661 58.302849 63.744389 92.579636
[R_front_hand03_01]
38 87.286232 -22.307278 -0.143439 0.162155 -0.423168 -75.767921 90.091743
39 87.286232 -22.307278 -0.143439 0.162155 -0.423168 -75.767921 90.091743
[R_front_hand01_02]
38 71.020905 0.000060 0.000119 0.002323 -0.000334 106.381714 71.020905
39 71.020905 0.000060 0.000119 0.002323 -0.000334 106.381714 71.020905
[R_front_hand02_02]
38 71.020844 -0.000030 -0.000119 0.002323 -0.000334 106.381714 71.020836
39 71.020844 -0.000030 -0.000119 0.002323 -0.000334 106.381714 71.020836
[R_front_hand03_02]
38 71.020905 0.000000 0.000030 0.002323 -0.000334 106.381714 71.020905
39 71.020905 0.000000 0.000030 0.002323 -0.000334 106.381714 71.020905
[null_rope01_connect]
38 328.732483 0.000000 -0.000238 -155.398956 -65.111656 -113.006264 328.732483
39 328.732483 0.000000 -0.000238 -154.881714 -64.782799 -115.041695 328.732483
[Rope1_Seg01]
38 0.000072 -0.000039 0.000290 45.740444 6.211922 -121.485786 0.000301
39 0.000074 -0.000039 0.000297 47.620884 4.588762 -120.410744 0.000309
[Rope1_Seg02]
38 139.999863 -0.000179 0.000000 7.760064 2.343214 3.944306 139.999863
39 139.999863 -0.000179 0.000000 7.714485 2.603930 3.331070 139.999863
[Rope1_Seg03]
38 139.999924 0.000060 -0.000060 8.168146 2.683736 3.710245 139.999924
39 139.999924 0.000060 -0.000060 7.561872 2.811994 2.944425 139.999924
[Rope1_Seg04]
38 139.999924 -0.000060 -0.000119 9.440587 3.609999 3.691408 139.999924
39 139.999924 -0.000060 -0.000119 8.349113 3.604952 2.835036 139.999924
[Rope1_Seg05]
38 139.999832 0.000119 -0.000060 5.802138 3.628709 1.047707 139.999832
39 139.999832 0.000119 -0.000060 5.752585 3.593830 1.059214 139.999832
[Rope1_Seg06]
38 139.999954 0.000119 -0.000060 2.229365 1.745656 0.114781 139.999954
39 139.999954 0.000119 -0.000060 2.374590 1.767979 0.226307 139.999954
[Rope1_Seg07]
38 139.999985 0.000060 0.000000 1.492207 1.107209 0.184254 139.999985
39 139.999985 0.000060 0.000000 1.479796 1.097368 0.181534 139.999985
[Rope1_Seg09]
38 121.602913 0.000119 -0.000089 -89.793175 -1.359789 0.847147 121.602913
39 121.602913 0.000119 -0.000089 -89.793175 -1.359789 0.847147 121.602913
[L_mid_hand01]
38 103.859421 1.038730 8.195221 130.544373 -67.584534 -38.866943 104.187431
39 103.859421 1.038730 8.195221 130.544373 -67.584534 -38.866943 104.187431
[L_mid_hand02]
38 105.572853 -4.139662 -10.864139 -168.923172 43.409309 -73.498894 106.211075
39 105.572853 -4.139662 -10.864139 -168.923172 43.409309 -73.498886 106.211075
[L_mid_hand03]
38 104.641464 17.579376 -3.913581 -6.012627 17.808174 74.893669 106.179977
39 104.641464 17.579376 -3.913581 -6.012627 17.808174 74.893669 106.179977
[null_rope02_connect]
38 328.732849 0.000179 -0.000119 -143.429642 68.984734 -42.536888 328.732849
39 328.732849 0.000179 -0.000119 -142.416840 68.300995 -40.351707 328.732849
[Rope2_Seg01]
38 0.000105 0.000114 0.000000 44.071667 7.382062 -32.914711 0.000154
39 0.000110 0.000114 0.000000 42.176350 6.198491 -34.269993 0.000158
[Rope2_Seg02]
38 139.999741 -0.000060 -0.000119 -21.005711 -8.030580 -7.516240 139.999756
39 139.999741 -0.000060 -0.000119 -21.900894 -7.341809 -7.842896 139.999756
[Rope2_Seg03]
38 140.000107 0.000030 0.000000 -12.418772 -2.313712 -5.710344 140.000107
39 140.000107 0.000030 0.000000 -10.959508 -1.355826 -5.281221 140.000107
[Rope2_Seg04]
38 139.999802 0.000000 -0.000060 -9.932462 -0.970648 -5.352152 139.999802
39 139.999802 0.000000 -0.000060 -9.567677 -0.584356 -5.336310 139.999802
[Rope2_Seg05]
38 139.999985 -0.000060 0.000119 -27.884010 -2.728644 -21.774433 139.999985
39 139.999985 -0.000060 0.000119 -27.829863 -2.586964 -22.077892 139.999985
[Rope2_Seg06]
38 139.999893 -0.000030 -0.000119 -12.347269 6.588972 -17.881495 139.999893
39 139.999893 -0.000030 -0.000119 -11.997583 6.560323 -17.575262 139.999893
[Rope2_Seg07]
38 139.999893 0.000060 -0.000060 -2.922987 4.227502 -6.694253 139.999893
39 139.999893 0.000060 -0.000060 -2.857744 4.188686 -6.603924 139.999893
[Rope2_Seg09]
38 121.338966 0.000089 -0.000060 33.793236 -1.359788 -0.847141 121.338966
39 121.338966 0.000089 -0.000060 33.793236 -1.359788 -0.847141 121.338966
[R_mid_hand01]
38 104.680779 11.144459 -10.335981 -16.212063 45.237247 70.462852 105.778534
39 104.680779 11.144459 -10.335981 -16.212063 45.237247 70.462852 105.778534
[R_mid_hand02]
38 104.070427 2.443552 8.231699 49.067368 -67.749771 39.286453 104.424065
39 104.070427 2.443552 8.231699 49.067371 -67.749794 39.286461 104.424065
[R_mid_hand03]
38 106.028137 -11.221827 -5.996406 -177.101105 15.551026 -76.585571 106.788818
39 106.028137 -11.221827 -5.996406 -177.101105 15.551026 -76.585571 106.788818
[spine02]
38 129.756927 0.001550 0.000119 0.459940 -4.033787 -14.353918 129.756927
39 129.756927 0.001550 0.000119 0.423034 -4.038101 -13.863967 129.756927
[spine03]
38 78.614037 0.081908 -4.899001 1.954276 3.802082 17.370045 78.766571
39 78.614044 0.081848 -4.899004 1.935076 3.813642 17.064304 78.766579
[pelvis]
38 169.435242 0.051022 0.000000 -0.068211 -0.178560 15.903705 169.435257
39 169.435242 0.051022 0.000000 -0.062352 -0.179581 15.289706 169.435257
[null_rope03_connect]
38 -1.257226 -2.466202 137.391083 0.000000 -89.473618 60.004406 137.418976
39 -1.257226 -2.466202 137.391083 0.000000 -89.440468 60.647682 137.418976
[null_rope04_connect]
38 -1.259640 -2.480268 -137.844437 0.000000 -89.473618 60.004406 137.872513
39 -1.259640 -2.480268 -137.844437 0.000000 -89.440468 60.647682 137.872513
[Rope3_Seg01]
38 -0.000029 -0.000002 0.000290 17.974794 23.047949 -78.424034 0.000291
39 -0.000029 -0.000001 0.000297 17.983049 23.081436 -78.406761 0.000299
[Rope3_Seg02]
38 139.999924 -0.000119 0.000060 -0.073880 0.642047 3.295577 139.999924
39 139.999924 -0.000119 0.000060 -0.076707 0.629757 3.295568 139.999924
[Rope3_Seg03]
38 139.999924 -0.000119 0.000119 -0.232521 0.856993 4.422594 139.999924
39 139.999924 -0.000119 0.000119 -0.235450 0.844736 4.425067 139.999924
[Rope3_Seg04]
38 139.999924 0.000119 0.000000 -1.026563 1.757495 9.300473 139.999924
39 139.999924 0.000119 0.000000 -1.030141 1.745306 9.293072 139.999924
[Rope3_Seg05]
38 139.999924 -0.000238 0.000060 1.152138 -1.210317 -7.102956 139.999924
39 139.999924 -0.000238 0.000060 1.152757 -1.217571 -7.117910 139.999924
[Rope3_Seg06]
38 139.999893 -0.000119 -0.000060 1.817271 -3.668738 -19.790936 139.999893
39 139.999893 -0.000119 -0.000060 1.817271 -3.668738 -19.790936 139.999893
[Rope3_Seg07]
38 139.999771 0.000060 -0.000119 0.075217 -2.256616 -10.766356 139.999771
39 139.999771 0.000060 -0.000119 0.075282 -2.256614 -10.769670 139.999771
[Rope3_Seg08]
38 139.999985 -0.000060 0.000000 -0.124503 -1.262937 -6.073487 139.999985
39 139.999985 -0.000060 0.000000 -0.124503 -1.262937 -6.073487 139.999985
[Rope3_Seg09]
38 90.185997 -0.000179 -0.000060 89.793228 -1.359877 -0.847183 90.185997
39 90.185997 -0.000179 -0.000060 89.793228 -1.359877 -0.847183 90.185997
[R_rear_hand01]
38 103.366196 -6.073594 -10.757982 -177.714203 24.565960 -73.910950 104.101845
39 103.366196 -6.073594 -10.757982 -177.714203 24.565960 -73.910950 104.101845
[R_rear_hand02]
38 100.509819 12.039542 -7.992327 -12.874829 36.868488 72.167213 101.543350
39 100.509819 12.039542 -7.992327 -12.874829 36.868488 72.167213 101.543350
[R_rear_hand03]
38 101.539970 5.215704 5.435467 71.484581 -71.816628 21.513813 101.819031
39 101.539970 5.215704 5.435467 71.484581 -71.816628 21.513813 101.819031
[Rope4_Seg01]
38 0.000000 0.000000 0.000000 -101.666832 19.947693 -109.115692 0.000000
39 0.000000 0.000000 0.000000 -101.677650 19.998755 -109.115616 0.000000
[Rope4_Seg02]
38 139.999985 0.000060 0.000119 -0.331900 -5.777415 -0.013781 139.999985
39 139.999985 0.000060 0.000119 -0.329293 -5.777422 -0.016388 139.999985
[Rope4_Seg03]
38 139.999924 0.000000 -0.000238 0.051187 -8.299444 -1.229349 139.999924
39 139.999924 0.000000 -0.000238 0.051368 -8.299443 -1.231842 139.999924
[Rope4_Seg04]
38 139.999985 0.000000 0.000119 1.119839 -15.591446 -5.280196 139.999985
39 139.999985 0.000000 0.000119 1.119383 -15.586350 -5.315030 139.999985
[Rope4_Seg05]
38 139.999802 -0.000060 -0.000119 2.704980 12.083777 13.600363 139.999802
39 139.999802 -0.000060 -0.000119 2.704980 12.083777 13.600363 139.999802
[Rope4_Seg06]
38 139.999924 0.000000 0.000060 0.633337 11.067210 9.039444 139.999924
39 139.999924 0.000000 0.000060 0.634679 11.067099 9.036252 139.999924
[Rope4_Seg07]
38 139.999802 0.000000 0.000000 -0.176401 3.133596 3.079524 139.999802
39 139.999802 0.000000 0.000000 -0.176401 3.133596 3.079524 139.999802
[Rope4_Seg08]
38 139.999924 0.000000 0.000119 -1.703357 1.748957 1.731847 139.999924
39 139.999924 0.000000 0.000119 -1.703357 1.748957 1.731847 139.999924
[Rope4_Seg09]
38 90.185791 0.000060 0.000060 -135.617828 2.228885 0.850567 90.185791
39 90.185791 0.000060 0.000060 -135.617828 2.228885 0.850567 90.185791
[L_rear_hand01]
38 101.696655 -8.392275 -7.654577 -12.874829 -36.868488 107.832764 102.329041
39 101.696655 -8.392275 -7.654577 -12.874829 -36.868488 107.832764 102.329041
[L_rear_hand02]
38 102.726799 -1.568258 5.773216 71.484581 71.816628 158.486160 102.900848
39 102.726799 -1.568258 5.773216 71.484581 71.816628 158.486160 102.900848
[L_rear_hand03]
38 104.552910 9.721220 -10.420293 -177.714203 -24.565960 -106.089035 105.519653
39 104.552910 9.721220 -10.420293 -177.714203 -24.565960 -106.089035 105.519653
